<svg width="1024" height="1024" viewBox="0 0 1024 1024" fill="none" xmlns="http://www.w3.org/2000/svg">
  <!-- Fondo circular con gradiente -->
  <circle cx="512" cy="512" r="512" fill="url(#gradient)"/>
  
  <!-- Libro abierto -->
  <g transform="translate(200, 300)">
    <!-- Página izquierda -->
    <path d="M100 50 L100 400 L200 400 L200 50 Q200 30 180 30 L120 30 Q100 30 100 50 Z" fill="white" stroke="#4A90E2" stroke-width="4"/>
    
    <!-- Página derecha -->
    <path d="M200 50 L200 400 L300 400 L300 50 Q300 30 280 30 L220 30 Q200 30 200 50 Z" fill="white" stroke="#4A90E2" stroke-width="4"/>
    
    <!-- Líneas de texto en página izquierda -->
    <line x1="120" y1="100" x2="180" y2="100" stroke="#4A90E2" stroke-width="2"/>
    <line x1="120" y1="130" x2="170" y2="130" stroke="#4A90E2" stroke-width="2"/>
    <line x1="120" y1="160" x2="175" y2="160" stroke="#4A90E2" stroke-width="2"/>
    <line x1="120" y1="190" x2="165" y2="190" stroke="#4A90E2" stroke-width="2"/>
    
    <!-- Líneas de texto en página derecha -->
    <line x1="220" y1="100" x2="280" y2="100" stroke="#4A90E2" stroke-width="2"/>
    <line x1="220" y1="130" x2="270" y2="130" stroke="#4A90E2" stroke-width="2"/>
    <line x1="220" y1="160" x2="275" y2="160" stroke="#4A90E2" stroke-width="2"/>
    <line x1="220" y1="190" x2="265" y2="190" stroke="#4A90E2" stroke-width="2"/>
  </g>
  
  <!-- Graduación cap -->
  <g transform="translate(350, 200)">
    <path d="M50 50 L50 80 L150 80 L150 50 L200 50 L200 30 L0 30 L0 50 L50 50 Z" fill="#FFD700" stroke="#FFA500" stroke-width="2"/>
    <!-- Borla -->
    <circle cx="100" cy="30" r="8" fill="#FFD700"/>
    <line x1="100" y1="30" x2="100" y2="15" stroke="#8B4513" stroke-width="3"/>
  </g>
  
  <!-- Estrella de conocimiento -->
  <g transform="translate(450, 250)">
    <path d="M50 10 L60 40 L90 40 L70 60 L80 90 L50 70 L20 90 L30 60 L10 40 L40 40 L50 10 Z" fill="#FFD700" stroke="#FFA500" stroke-width="2"/>
  </g>
  
  <!-- Definición del gradiente -->
  <defs>
    <linearGradient id="gradient" x1="0%" y1="0%" x2="100%" y2="100%">
      <stop offset="0%" style="stop-color:#4A90E2;stop-opacity:1" />
      <stop offset="100%" style="stop-color:#357ABD;stop-opacity:1" />
    </linearGradient>
  </defs>
</svg>
